<svg 
          width="25.66666603088379" 
          height="23.362499237060547" fill="none" 
          xmlns="http://www.w3.org/2000/svg">
          <path d="M 17.17916668617363 13.0083327112821 L 15.895832939581439 11.72500006298298 C 16.401388487249914 10.344444591115355 16.138888257320488 9.19722257457587 15.108332736564412 8.283333665670767 C 14.077777215808336 7.369444756765665 12.9597216415887 7.1361110232825204 11.754166152983007 7.583333230147597 L 10.470833519010823 6.300000025538466 C 10.801389064060308 6.086111134924027 11.170833286101162 5.9305554777564655 11.579166602365893 5.833333253959689 C 11.987499918630624 5.736111030162913 12.405555238988667 5.687499922610697 12.833333015441896 5.687499922610697 C 14.213888471897207 5.687499922610697 15.385416076941931 6.168750152494125 16.347916039192324 7.131250125489724 C 17.310416001442714 8.093750098485323 17.791666225953538 9.265277716608807 17.791666225953538 10.645833188476432 C 17.791666225953538 11.07361096970531 17.738193117277813 11.496527192523255 17.631248673164507 11.914582726164657 C 17.5243042290512 12.332638259806059 17.373611131596434 12.697221588178541 17.17916668617363 13.0083327112821 L 17.17916668617363 13.0083327112821 Z M 20.941667038021645 16.770833105134106 L 19.7750004002542 15.604166454342169 C 20.72777814979503 14.904166436051506 21.559026780152575 14.121527817423253 22.268749003338105 13.256250042147398 C 22.978471226523634 12.390972266871543 23.498609641254575 11.520833176570386 23.82916518630406 10.645833188476432 C 22.856943011344107 8.487499856695846 21.39860964459605 6.781250185883144 19.45416529467614 5.52708348065081 C 17.509720944756232 4.272916775418476 15.399999674161275 3.645833283724806 13.124999674883757 3.645833283724806 C 12.308333042354295 3.645833283724806 11.472222401638213 3.7236108298074098 10.616666848731754 3.879166391359189 C 9.761111295825295 4.034721952910968 9.090277541014883 4.219444604918929 8.604166453534907 4.433333495533368 L 7.262499708840345 3.062499958328837 C 7.943055224358438 2.751388835225278 8.813193748635488 2.4791668589338096 9.872915977059 2.2458335252984845 C 10.932638205482512 2.0125001916631593 11.968055249825873 1.8958333075368992 12.979166345162826 1.8958333075368992 C 15.759721961647571 1.8958333075368992 18.302083297209297 2.688194278060755 20.6062499346155 4.272916497263471 C 22.910416572021706 5.8576387164661865 24.597221589750717 7.981944372922175 25.666666030883793 10.645833188476432 C 25.161110483215317 11.890277680890668 24.509722509829665 13.02777783230581 23.712500302719327 14.058333364566856 C 22.91527809560899 15.088888896827902 21.991666984196847 15.993055314759896 20.941667038021645 16.770833105134106 Z M 22.63333232764043 23.362499237060547 L 17.73333378416117 18.549999302543803 C 17.052778268643078 18.8222215222209 16.284722282428923 19.031249741043485 15.429166729522464 19.177083072392477 C 14.573611176616005 19.32291640374147 13.70833299376748 19.395833069415968 12.833333015441896 19.395833069415968 C 9.994444122699779 19.395833069415968 7.4180553903483375 18.603471542582103 5.104166540232572 17.018749323379385 C 2.7902776901168056 15.43402710417667 1.0888888665521987 13.30972200403069 0 10.645833188476432 C 0.3888888908456068 9.634722081851585 0.9284722873056758 8.64791609003948 1.6187500155333305 7.685416117043882 C 2.309027743760985 6.722916144048284 3.1500001166806033 5.804166476427889 4.141666786598432 4.9291664883339354 L 0.46666662729147784 1.2541667052323342 L 1.6916666803937956 0 L 23.770832744511694 22.07916547614141 L 22.63333232764043 23.362499237060547 Z M 5.337499645262059 6.154166694189474 C 4.618055209366968 6.679166673138096 3.922916444323283 7.369444548149411 3.252083141514752 8.225000110607166 C 2.5812498387062215 9.08055567306492 2.0999998923504006 9.887499893277173 1.8083332329085395 10.645833188476432 C 2.799999902826368 12.804166520257018 4.292360735902889 14.510416191069721 6.285416288448109 15.764582896302056 C 8.278471840993328 17.018749601534388 10.538888312590252 17.64583309322806 13.066666120471384 17.64583309322806 C 13.708332785151228 17.64583309322806 14.34027716758276 17.606943763876746 14.962499406843481 17.529165983100857 C 15.584721646104201 17.451388202324967 16.051388030010052 17.334722439511072 16.362499149640414 17.179166877959293 L 14.495833196784506 15.312499791644184 C 14.281944308557891 15.409722015440959 14.01944411339784 15.482638676769284 13.70833299376748 15.531249788667672 C 13.397221874137118 15.57986090056606 13.105555232079945 15.604166454342167 12.833333015441896 15.604166454342169 C 11.47222198440571 15.604166454342169 10.305555277099515 15.127777122251535 9.33333310213956 14.174999362074036 C 8.361110927179606 13.222221601896537 7.874999804930254 12.045833225057759 7.874999804930254 10.645833188476432 C 7.874999804930254 10.354166525778448 7.899305358435019 10.062499863080465 7.947916469790719 9.77083320038248 C 7.99652758114642 9.479166537684495 8.069444241660714 9.216666322209242 8.166666464372115 8.983332988573917 L 5.337499645262059 6.154166694189474 Z" fill="rgb(190.18750101327896,190.18750101327896,190.18750101327896)"/>
        </svg>